<svg xmlns="http://www.w3.org/2000/svg" viewBox="0 0 32 32" id="github"><g><path d="M28 1c1.654 0 3 1.346 3 3v24c0 1.654-1.346 3-3 3H4c-1.654 0-3-1.346-3-3V4c0-1.654 1.346-3 3-3h24m0-1H4C1.8 0 0 1.8 0 4v24c0 2.2 1.8 4 4 4h24c2.2 0 4-1.8 4-4V4c0-2.2-1.8-4-4-4z"></path><path d="M19.613 25.958h-5.309s.007-1.575 0-2.656c-3.633.782-4.647-1.992-4.647-1.992-.664-1.328-1.328-1.992-1.328-1.992-1.328-.789 0-.664 0-.664 1.328 0 1.992 1.328 1.992 1.328 1.165 1.978 3.238 1.66 3.983 1.328 0-.664.291-1.668.664-1.992-2.9-.327-5.314-1.992-5.314-5.311s.667-3.983 1.33-4.647c-.134-.327-.69-1.537.021-3.319 0 0 1.305 0 2.632 1.992.658-.658 2.656-.664 3.32-.664.663 0 2.661.006 3.318.664 1.328-1.992 2.636-1.992 2.636-1.992.71 1.783.155 2.992.02 3.319.664.664 1.328 1.328 1.328 4.647s-2.411 4.984-5.311 5.311c.374.324.664 1.467.664 1.992l.001 4.648z"></path></g></svg>